<svg xmlns="http://www.w3.org/2000/svg" viewBox="0 0 704 704" fill="none" shape-rendering="auto" width="512"
    height="512">
    <desc>"Open Peeps" by "Pablo Stanley", licensed under "CC0 1.0". / Remix of the original. - Created with
        dicebear.com</desc>
    <metadata xmlns:dc="http://purl.org/dc/elements/1.1/" xmlns:cc="http://creativecommons.org/ns#"
        xmlns:rdf="http://www.w3.org/1999/02/22-rdf-syntax-ns#">
        <rdf:RDF>
            <cc:Work>
                <dc:title>Open Peeps</dc:title>
                <dc:creator>
                    <cc:Agent rdf:about="https://twitter.com/pablostanley">
                        <dc:title>Pablo Stanley</dc:title>
                    </cc:Agent>
                </dc:creator>
                <dc:source>https://www.openpeeps.com/</dc:source>
                <cc:license rdf:resource="https://creativecommons.org/publicdomain/zero/1.0/" />
            </cc:Work>
        </rdf:RDF>
    </metadata>
    <mask id="ar1legqv">
        <rect width="704" height="704" rx="352" ry="352" x="0" y="0" fill="#fff" />
    </mask>
    <g mask="url(#ar1legqv)">
        <rect fill="#b6e3f4" width="704" height="704" x="0" y="0" />
        <g transform="scale(-1 1) translate(-704 0)">
            <g fill-rule="evenodd" clip-rule="evenodd">
                <path
                    d="M705.3 1074a2351.1 2351.1 0 0 1-15.6-101c-1-7.7-2.5-16.4 2.7-22 7.3-8 14-14.8 14.8-26.2.8-10.7-2.8-22.4-5-32.8a809.4 809.4 0 0 0-17.3-64.7c-6.6-21.7-13.9-43.2-21.3-64.6-6.9-20-13.5-40.3-22.5-59.5-17-36.5-46-63.5-81.6-81.6-9-4.5-27-20.5-36.3-24-8.5-3.4-8.5 6.3-16.9 2.6-6.7-2.9-13-6.7-16.7-13.2-4-7-14.3-16.9-15.9-25-3.3-17.4.3-32.2-12-45.3a90 90 0 0 0-41.1-23.8c-33.7-9.3-78.5-2.8-98.8 28.5-9.7 14.9-13 33-26.2 45.1-11.4 10.7-8.8 18-23.6 23.4-.9.3-23.6-4.5-24.4-4.2-16.2-3.5-31.7 6.2-46.5 11.8a325.4 325.4 0 0 0-63 32.3 399.2 399.2 0 0 0-102.3 98.5 482.5 482.5 0 0 0-76.4 161c-1.7 6.4-3.5 13-1.5 19.4 1.7 5.3 5.4 9.2 9.8 12.4 6 4.3 18 7 17.7 15.7-.1 6.6-2.4 13.5-3.5 20-1.3 7.7-2.3 15.5-3.4 23.2-4.8 35.4-8.6 71-10.3 106.6a920 920 0 0 0-.5 106c.1 2.3.8 4.5 2 6.2-1 .4-1.2 2.4.1 2.7l2.7.5a12 12 0 0 0 7 2.4l5.5.2c19.3 4 38.6 7.9 58.1 10.8 23.8 3.5 47.6 6.3 71.5 8.7 49.2 4.8 98 3.2 147.1.6a1877 1877 0 0 1 147.4-2c49.2 1.4 98.4 3.5 147.6 4.4 55 1 110-.5 164.8-5 7.5-.5 12.2-6.5 10.7-14-8.9-44.7-19-89.1-27-134Z"
                    fill="#ffdbb4" />
                <path
                    d="m201 597.5 1.2-.4c14.5-5.7 29.6-14.8 45.4-11.4.5-.2 10.8 1.9 17.9 3.2l-6.7 7L247 598c40.7 67.1 88.8 100.7 144.3 100.7 55.5 0 97.7-33.6 126.4-100.7l4-1c.4 0 1 .2 1.5.4 9.3 3.6 27.4 19.6 36.3 24.1 35.6 18 64.5 45 81.6 81.6 8.7 18.6 15.2 38 21.8 57.5l.7 2c7.4 21.4 14.7 43 21.3 64.6 6.3 20.4 12 41 16.6 61.8l.7 2.9c2.2 10.4 5.8 22 5 32.8a29 29 0 0 1-3 10.7l-80.4 29 38.4 261.3c-35.1 1.5-70.3 2-105.5 1.3-49.2-.9-98.4-3-147.6-4.3-47.7-1.2-95.3-.7-143 1.7l-12 .6a946.3 946.3 0 0 1-139.5-1l-3.1-.3v-38.3l16.3-212.9-83-15.6-81.3-39.5a21.7 21.7 0 0 1-5.6-8.8c-1.9-6-.5-12 1-18l.5-1.3a492.8 492.8 0 0 1 76.4-161A399.3 399.3 0 0 1 138 629.7c19.8-13 40.9-23.9 63-32.3Z"
                    fill="#8fa7df" />
                <path
                    d="M232.2 584.6c5.1-.3 10.3.6 15.4 1 .4.1.6.8 0 .9-9 1.9-18 4.5-26.9 7.1l-3.8 1.2c-10 3-19.8 6-29.6 10-19.4 7.9-37.8 18.5-54.8 30.8C67.2 682.8 20 754.3-9.9 828.3a526 526 0 0 0-24.3 77c-.4 1.6-2 5.4-1 7 .7 1.3 3.6 2.1 5 2.9l4.5 2.3 25.2 12.9 2.3 1.1c38 18.6 78.4 34.4 121 35.5l.4-3.7a342 342 0 0 1 9.9-60c.3-1 1.6-.6 1.7.3 3 23.1 2 46.4 1 69.7-1.8 41-4.3 82.2-6.5 123.3-1.2 20.6-2.6 41-3.9 61.7-1.3 20.5-1.7 41.6-4.7 62-.6 4.6-6 7-10 6.6-4.4-.5-7.9-4.5-8-9 0-11.9 1.5-24 2.4-35.8l2.5-33.8c3.1-41.1 6.8-82.2 10.2-123.3a4771 4771 0 0 1 3.8-43.7C76.4 979.8 34.2 963-6.1 943.5c-.6 13.2-2 26.5-3.4 39.6-3.8 36.8-7.1 73.6-9.6 110.5a2254.2 2254.2 0 0 0-4.2 92.7l-.2 7c0 4.4-.5 8.5-4.3 11.7-3.7 3.3-8.9 3.5-12.6 0-5-4.6-4.2-10.9-4-17.1a1675.6 1675.6 0 0 1 1.8-47.2 1321 1321 0 0 1 10.5-109.5l2-14c3.5-26 7.5-52.7 15.5-77.9-3.1-1.5-6.2-3-9.3-4.7-5.5-2.7-11.2-5.4-16.6-8.4-4.2-2.5-7.9-5.8-9-10.8-1.4-5.5.6-11.5 2-16.9v-.4a502 502 0 0 1 26.6-80 523.2 523.2 0 0 1 67.8-117 353.8 353.8 0 0 1 88.7-83.3 239 239 0 0 1 53.8-25.7 142.6 142.6 0 0 1 42.8-7.5Zm90.1-66c6-6.5 18.1.2 15.2 8.8a108.2 108.2 0 0 1-34.7 52A79.4 79.4 0 0 1 247 598l1.7 2.4a321.1 321.1 0 0 0 46.1 52.6c36 31.2 84.8 48 132 36 37.1-9.4 69.8-38.8 79.4-76.2-1.3.6-3 .9-4.8.5-7.7-1.7-15.3-9.8-20.3-15.6-5.3-6.3-9.5-13-12.6-20.7-5.6-14-7.4-32.1.3-45.7 1-1.7 3-.7 3.3 1l.3 2.5c1.5 12.7 3.3 25 9.3 36.6a76 76 0 0 0 18.2 23.1c2.6 2 5.8 3.6 8.1 6l.5.4c.6-5 4.1-7.3 7.6-7.2 3.3.2 7.3 1.6 8.8 2.3l.1.1a341 341 0 0 1 65.1 42 259 259 0 0 1 88.4 129c7.5 25.3 11.8 51.4 16.3 77.4l2.8 16c4.2 23.9 8.9 48.4 18.4 70.7 2.5 5.7.6 11.1-5.5 13.4A1493 1493 0 0 1 688 953c3.7 16 6 32.5 8.7 48.5 6 34.1 13.2 68 19.4 102 3.2 17.5 6.1 35 9.3 52.3l4.7 25.2 2.4 13.6.1.7c.5 2.4 1 4.9.4 7.3-.8 2.7-2.9 4.6-4.8 6.6-1.6 1.6-3.8 1.6-5.7.7l-.7-.3c-3.4-1.6-6-3.2-7.3-7-.7-2.5-1-5.2-1.5-7.7a3535.6 3535.6 0 0 1-7.8-43.6l-1.6-9.1c-5.2-31.4-10.2-62.9-12.8-94.5-1-14-2.3-28.1-3.5-42.2l-.9-10.5c-1.1-13.3-2.5-27-2.7-40.5l-4.5 1.6L657 964c-5.5 2-12.5 6-18.4 5.2-2.9-.3-5-1.2-6.8-2.9 2 28.8 4.8 57.4 8.5 86a1965.7 1965.7 0 0 0 22 135c.6 3.2 1.4 6.4 1.9 9.6.5 3.7-.5 5.9-2.5 9-1.7 2.4-5 3.7-7.8 2-3.6-2.3-5.5-4.3-6.5-8.4-1-3.7-1.6-7.6-2.3-11.4a1654.2 1654.2 0 0 1-11.4-65.2c-7.8-52-12.7-104.4-15.2-156.8a1388 1388 0 0 1-1.4-77.8c0-13.3.5-26.6 1.4-39.9 1-13.4 3-26.5 4.8-39.8 0-.5.7-.5.7 0 .8 14.9 2.1 29.8 2.8 44.7.6 14.3.9 28.5 1.4 42.8.6 18.7 1.5 37.5 2.7 56.2a9.6 9.6 0 0 1 8.5-3.1c4.7-1 9.7-3.4 14.1-5l16.8-5.5 26.4-8.7a679 679 0 0 1-18-80.8l-2-12.3c-4-24.2-8.5-48.5-15.8-72a229.8 229.8 0 0 0-34.8-68.2 370.2 370.2 0 0 0-52.7-55.3C557 627 539.7 614 523 600c.1.9.2 2 0 3-3.5 25.9-17 50-35.8 67.9-37.7 36-93.6 43.4-142 26.5-46.7-16.3-88-55-102.6-102.8-.3-.8.8-1 1.3-.5l2.4 3.3c0-.4.2-.9.7-1a129 129 0 0 0 46.6-29.2 100.2 100.2 0 0 0 21.3-33.3l.4-1c1.7-5 3.2-10.2 7-14.2Z"
                    fill="#000" />
            </g>
            <g transform="matrix(.99789 0 0 1 156 62)">
                <g fill-rule="evenodd" clip-rule="evenodd">
                    <path
                        d="M385.4 173.2c-3.8-23.3 8.8-28.2 0-50.4-19.6-41.1-73-39.4-112-42.5-43.8-1.7-88 4-128.2 21.6-9.7 4.2-19 9-27.8 14.7-7.6 4.8-6.6 14-1.8 19C80.8 185 100.7 251.2 73 303.2c-5.1 9.3-12 17.6-16.4 27.3-6.8 14.7-7.2 35.7 8.2 45.5 21.7 11.6 33.8-11.4 44.4 22 53.2 116.5 160.2 123 261.8 62.3a87.9 87.9 0 0 0 24.4-18c15-17 13.3-40.9 13.6-62 .2-12.4.2-24.9.1-37.3-.5-50.2-17.1-120-23.6-169.8Z"
                        fill="#ffdbb4" />
                    <path
                        d="M169 33.5A386.6 386.6 0 0 1 367 2.1c33 3.4 65.6 10.7 96.6 22.6l2.7 1c7.6 3 15.9 5.9 21.7 11.9a22 22 0 0 1 3.8 26.1 32.7 32.7 0 0 1-17.7 14c2.6 2.1 5 4.5 7.2 7 3.8 4.4 4.1 10.6 0 14.9a62.3 62.3 0 0 1-29.2 17c1.3 6 .6 12.7-2 18.6-7.7 17.2-29.2 19.2-45.7 18.2h-.5l-1 10.5c-.4 5.6-3.8 10-9.5 10.8h-.6c9 32.7 14.5 66.3 19.5 99.8 2.6 17.4 5 34.9 7.2 52.4l.8 5.8c2.4 19 5.4 38 6.4 57 1 17.2-2.3 33.7-13 47.6a102.8 102.8 0 0 1-36.5 28.8 342.8 342.8 0 0 1-99.9 32.8l-2.3.3a96.6 96.6 0 0 1-40.7 0c-11.8-3.2-24-11.6-21.4-25.2.9-4.6 7.3-4.8 9.5-1.3l.5.8a25 25 0 0 0 10.1 10.3 42.6 42.6 0 0 0 17.6 3.3c16.4.2 33.5-4 49.4-8 29.6-7.7 60-20.2 84.2-39.2a55.4 55.4 0 0 0 21.5-31.1c3.6-16 .3-33.5-1.4-49.5-3.3-33.2-7.4-66.3-11.6-99.4l-.8-6.6c-3.6-27.6-7.4-55.3-9.1-83-.8-1-1.3-2.2-1.5-3.5l-.3-1.8a269.4 269.4 0 0 1 .4-22c-5.1 1.2-10.4 2-15.7 2.9-37 5.6-74.8 7-112.2 4.2a650.9 650.9 0 0 1-83.8-11.9c-6.7-1.3-13.4-3.1-20-4.9a55.5 55.5 0 0 0-9.8 34.3c.8 13.8 10 26.2 7.4 40.3-2.4 13.1-13.7 17.2-24.8 20.5l-4.8 1.3c-3.6 1.1-6.2 2.1-6.9 6.5-1.1 7.5.3 16 .6 23.5.3 9 .8 17.9 1 26.8l.3 13.9a14 14 0 0 1-1.8 7.6c1 1.3 1.8 2.6 2.6 4 .3.5-.3 1-.7.6-1-1-2-2-3.2-2.8-.5.7-1.2 1.4-2 2.1-2.4 2.3-6.2 2.5-9.1 0l-.8-.7c-2.1-1.8-3.6-3.4-4.2-6.6l-.1-.4a31 31 0 0 0-16 3.8 37 37 0 0 0-16.6 18.1 21 21 0 0 0 4.6 4c.2.2 0 .6-.3.5-1.8-.9-3.4-2-4.8-3.2a44 44 0 0 0-2.5 9.7c-1.8 12 1.3 26.7 12.2 33.6a29.5 29.5 0 0 0 23.4 3.5c1.8-.5 3.6-1.1 5.4-1.1 1.6 0 3.1.4 4.5 1.2h-.4c-1 .1-.7.1.6.1 4 .2 6.2 4.3 4.4 7.8l-.2.6-.2.2-.1 1v.2l-.1.2v.1l6 9.2a270.8 270.8 0 0 0 42.5 53.3c6 5.8 13.2 8.6 20 13.2 3.7 2.4 4.8 7.6 1.5 10.8-9.8 9.7-23.5 2-31.5-5.8-7.6-7.5-14.1-16.4-19.8-25.4-10-16-17.9-33-21.4-51.3a14.6 14.6 0 0 1-5.1 2.8 47.9 47.9 0 0 1-33.9-2.9c-27.8-13.2-31.9-53-14.9-76.3-2.3-6.7-3.6-13.9-5-20l-.6-2.8c-7-30.7-11.7-63 .7-93 1.6-4 3.4-7.7 5.6-11.3 1.7-3 4.6-6 5.4-9.3 1.8-7.3-9.3-15-12.5-20.7-3.8-6.8-4.4-14.8.8-21a16 16 0 0 1 2.2-2.1c-5-9-5.2-20.1 1.3-29a28.4 28.4 0 0 1 17.9-11c4.3-.8 9.5-.5 14.3.8 26.1-24.2 56-44.5 88.4-59.2ZM68.9 337a31 31 0 0 1 24.1-8.5c9.6.8 21 4.7 26.7 13 4.4 6.4-4.6 15.9-11.1 11-6-4.4-9.9-9.4-17.2-11.8a47.7 47.7 0 0 0-21.7-2.3c-.8.2-1.5-.8-.8-1.4Z"
                        fill="#000" />
                </g>
            </g>
            <g transform="translate(315 248)">
                <path fill-rule="evenodd" clip-rule="evenodd"
                    d="M171 240.2a40.7 40.7 0 0 1-22.7 0c-6.9-2-13.8-6.3-18.9-12.1a27.4 27.4 0 0 1-7.2-18.2c0-.8.3-1.4.7-2a3.3 3.3 0 0 1 3.9-.8 174.4 174.4 0 0 0 3.7 4.3c6.1 7.7 12.1 13.4 21.4 15.4 5 1.2 10.1.7 14.8-1 5-1.8 9.4-5 13-9.1a7 7 0 0 1 5.2-2.6c2 0 4.1 1 5.7 2.4a8.8 8.8 0 0 1 2.6 5.8c0 1.9-.5 3.8-2.2 5.6a44.3 44.3 0 0 1-20 12.3Zm-.2-95.8c7.6 4.6 19 15.3 11 26.6-9.6 10-23.4-1.4-30.2-6.6-6.3-4-13.3 6.3-7.5 11 49 36.3 69-29.8 30.5-36.4-4.2-.8-5.8 4-3.8 5.4Zm-70.6-20.2a8.4 8.4 0 0 0-8.5-.7 27.5 27.5 0 0 0-9.8 9.8c-2 3.4-3.5 7.4-3.2 11.5 0 1-.3 1.6-.9 2.2-.4.4-1 .7-1.8.8-.6 0-1.3 0-2-.2-1-.4-1.6-1-1.8-1.6a23.8 23.8 0 0 1 1.2-17.6c3.2-7.6 9-14 12.8-16a21.4 21.4 0 0 1 20.7-.1c5.5 3 9 8 12.4 13l2.2 3.2c1.6 2 1.7 4.1 1.1 5.9-.6 2-2.3 3.6-4.3 4.5-2 .8-4.2 1-6.1 0-1.7-.6-3.2-2-4.1-4.3a23.1 23.1 0 0 0-8-10.4Zm123.2 8.6c-1.6.9-3 1.1-4.8.6-1-.3-2-1-2.8-1.7a5.6 5.6 0 0 1-1.5-2.8c-.6-2.7-2-5.2-4.1-6.8a8.2 8.2 0 0 0-6.5-1.7c-2.7.4-5.3 2.2-7 4.2-.6.7-1 1.4-1.5 2.2-.9 1.4-1.7 2.8-3 3.8-.4.4-1 .7-1.7.7l-.8-.1c-2.7-2.7-3.2-4.8-3.1-6.8 0-2 1-4.2 2.2-6.2 3.2-4.7 9.2-8.5 13.2-9.4 5.6-1.2 11 .2 15.5 3.3a22 22 0 0 1 9 13.7c.2 1.4 0 2.8-.4 4a5.6 5.6 0 0 1-2.7 3Zm-111-58.5c-3.3 3.2-7.3 3.7-11.2 4.1a53 53 0 0 0-37 20.4 74.6 74.6 0 0 0-3.2 4 28 28 0 0 1-1.5 2.7c-.5.9-.8 1.1-1 1.3l-1.3.2a2 2 0 0 1-1-.5c-1.7-1.5-2.2-3.8-2.2-6.3 0-3.9 1.5-8 2.8-10.7 3-6 7.2-12.3 12.2-16.8 5.7-5.1 12-9 19.2-11.7a39 39 0 0 1 14.6-3c3.5.2 6.8 1.2 9.6 3.8A8.4 8.4 0 0 1 115 68c0 2.3-.8 4.6-2.5 6.3Zm117.8 29.6c-.2.4-.5.6-.8.7a2 2 0 0 1-2-.3c-.4-.2-.6-.6-.7-1-2.2-9.7-6.4-16.9-15.6-21.5a66 66 0 0 0-14.6-5l-4.4-.7c-4.8-.7-9.5-1.5-12.6-5.3a10.2 10.2 0 0 1-2.2-8c.4-2.5 1.9-4.9 4.6-6.3 6.7-3.5 15 0 21.9 2.9l1.4.6A51 51 0 0 1 223 71.8c4 4.2 7.7 10.4 9.1 16.8 1.3 5.3 1 10.8-1.8 15.3Z"
                    fill="#000" />
            </g>
            <g transform="translate(279 400)"></g>
            <g transform="translate(179 343)"></g>
            <g transform="translate(203 303)">
                <path fill-rule="evenodd" clip-rule="evenodd"
                    d="M389 63.3c-9.4 64.5-76 71.6-87.8 7.6 1.9-.8 3.2-2.5 3-5.7-.1-14 4.2-28.7 16.8-36.4 13-8 28.2-8.8 43.3-8.6 28.7-.7 28.1 23.3 24.8 43Zm-98.2-28c-9-.4-20.5-.1-28.5 5.4a34 34 0 0 0-13.9-15.8c21.7.6 44-1.5 65.8-3.2-5.2 3.6-10 9-13.2 15.1-3-1.5-7.1-1.4-10.2-1.6ZM251 70c-25 86-87.4 48.6-94.2 37.5-12.2-18.2-14.5-62.6-3.9-74.4 15.3-10.8 37-8 55-8.3 33.3.5 56.9 10.4 43.1 45.2Zm167.6-39.6c-6.8-.8-14-1-20.4 2-2-8.3-8-15.2-14.9-18.2-.8-1-.7-1.6-3.6-1.5-17.4-5.2-37-2.5-53.8 3-26.6 2.2-54.4 4-81.2 7-25.1-11.3-100.8-13-105.5 14.9-6-1-16-5.6-21 .7-36.4-6.2-74.1 2.4-110.8 6.3-9.2 1.7-14 20-3.5 19.7 6-1.6-.1-11.4 7.8-12.1 35.3-3.9 69.9-9.4 105.6-10-1.2 6.2 23.6 6.6 24 3h.1c-6.1 23-.6 55.9 10.5 70 15.6 18.6 54.6 24 72 12 22.3-11 45.5-66.4 39-84.8a76.6 76.6 0 0 1 35.8-.7c-2.8 8-7.6 27.5-.6 29.2-1.3 38.8 34 63 66.6 47.1C393 105 402.8 63 399.3 37.5c3.6 6.8 33-.6 19.3-7Z"
                    fill="#000" />
            </g>
        </g>
    </g>
</svg>
